<?xml version="1.0" encoding="utf-8"?>
<svg id="Layer_1" data-name="Layer 1" viewBox="0 0 500 500" xmlns="http://www.w3.org/2000/svg">
  <defs>
    <style>.cls-1{fill:#fff;}.cls-2{fill:#fdda00;}.cls-3{fill:#88451f;opacity:0.3;}.cls-4{fill:none;stroke:#000;stroke-linecap:round;stroke-linejoin:round;stroke-width:20px;}</style>
  </defs>
  <title>beer-3</title>
  <path class="cls-1" d="M334.44,402.73H379.9a51.61,51.61,0,0,0,51.61-51.61V196.94a51.61,51.61,0,0,0-51.61-51.61H334.44v38.09H374.8a19.94,19.94,0,0,1,19.94,19.94V344.7a19.94,19.94,0,0,1-19.94,19.94H334.44Z"/>
  <path class="cls-1" d="M68.49,471.29a18.4,18.4,0,0,0,18.4,18.4H316a18.4,18.4,0,0,0,18.4-18.4v-15.1H68.49Z"/>
  <rect class="cls-1" x="68.49" y="118.36" width="265.95" height="41.37"/>
  <path class="cls-3" d="M293.07,118.36V471.29a18.4,18.4,0,0,1-18.4,18.4H316a18.4,18.4,0,0,0,18.4-18.4V118.36Z"/>
  <path class="cls-4" d="M155.5,118.36H334.44V471.29a18.4,18.4,0,0,1-18.4,18.4H86.89a18.4,18.4,0,0,1-18.4-18.4V118.36h47.94"/>
  <path class="cls-4" d="M334.44,402.73H379.9a51.61,51.61,0,0,0,51.61-51.61V196.94a51.61,51.61,0,0,0-51.61-51.61H334.44v38.09H374.8a19.94,19.94,0,0,1,19.94,19.94V344.7a19.94,19.94,0,0,1-19.94,19.94H334.44Z"/>
  <line class="cls-4" x1="68.49" y1="456.44" x2="334.44" y2="456.44"/>
  <line class="cls-4" x1="70.864" y1="117.002" x2="332.244" y2="117.002" style=""/>
  <line class="cls-4" x1="77.263" y1="119.744" x2="333.158" y2="119.744" style=""/>
</svg>